<svg xmlns="http://www.w3.org/2000/svg" width="96" height="57" fill="none"><path fill="#E6FF4C" d="M93.472 0 76.853.016a2.43 2.43 0 0 0-1.701.7L53.91 21.792l-.056.031c-2.022 2.005-5.48.58-5.48-2.25V2.505C48.39 1.121 47.258 0 45.862 0l-16.62.016a2.43 2.43 0 0 0-1.7.7L.706 27.303A2.38 2.38 0 0 0 0 29.061v25.434C0 55.879 1.14 57 2.537 57l16.595-.016a2.43 2.43 0 0 0 1.7-.7l21.306-21.107c2.023-2.005 5.481-.589 5.481 2.25v17.068A2.516 2.516 0 0 0 50.147 57l16.595-.016a2.43 2.43 0 0 0 1.701-.7l26.835-26.587c.473-.47.722-1.105.706-1.766L96 2.497C96 1.121 94.868 0 93.472 0"/></svg>