<svg xmlns="http://www.w3.org/2000/svg" width="24" height="24" fill="none" viewBox="0 0 24 24"><path fill="#fff" d="M.305 23.997h5.143V7.81H.306ZM2.911.007a2.7 2.7 0 0 0-1.106.155 2.7 2.7 0 0 0-.952.594A2.812 2.812 0 0 0 0 2.804a2.8 2.8 0 0 0 .203 1.102c.142.35.353.665.62.928.267.262.584.466.932.598.347.133.718.19 1.089.17h.034a2.7 2.7 0 0 0 1.106-.155c.354-.13.678-.332.952-.595s.49-.58.637-.933c.147-.352.22-.732.216-1.115a2.8 2.8 0 0 0-.208-1.11 2.8 2.8 0 0 0-.628-.931A2.7 2.7 0 0 0 4.01.168 2.7 2.7 0 0 0 2.911.007M24 14.716v9.28h-5.143v-8.66c0-2.174-.744-3.655-2.606-3.655a2.8 2.8 0 0 0-1.628.555 2.87 2.87 0 0 0-1.011 1.412c-.133.425-.19.869-.171 1.313V24H8.295c0-.001.07-14.667 0-16.187h5.143v2.296c-.008.017-.022.034-.03.052h.032v-.052a5.14 5.14 0 0 1 1.947-2.004 5 5 0 0 1 2.69-.67c3.385-.001 5.923 2.311 5.923 7.284"/></svg>