<svg width="24" height="24" fill="none" xmlns="http://www.w3.org/2000/svg"><path d="M.305 23.997H5.45V7.81H.305v16.186ZM2.911.007a2.68 2.68 0 0 0-1.106.155 2.715 2.715 0 0 0-.952.594c-.273.263-.49.581-.637.933-.147.353-.22.733-.215 1.115a2.79 2.79 0 0 0 .203 1.102c.141.35.352.665.619.928.267.262.584.466.932.598.347.133.718.19 1.089.17h.034a2.68 2.68 0 0 0 1.106-.155c.354-.13.678-.332.952-.595.273-.262.49-.58.637-.933.147-.352.22-.732.216-1.115a2.796 2.796 0 0 0-.208-1.109 2.755 2.755 0 0 0-.628-.931A2.7 2.7 0 0 0 4.01.168 2.663 2.663 0 0 0 2.911.007ZM24 14.716v9.28h-5.143v-8.659c0-2.175-.744-3.656-2.606-3.656a2.793 2.793 0 0 0-1.629.555 2.872 2.872 0 0 0-1.011 1.413c-.132.424-.19.868-.17 1.312V24H8.295s.07-14.666 0-16.186h5.144v2.296c-.009.017-.023.034-.032.052h.032v-.052a5.139 5.139 0 0 1 1.947-2.005 5.021 5.021 0 0 1 2.69-.67C21.462 7.435 24 9.747 24 14.72" fill="#fff"/></svg>