<svg width="250" height="466" fill="none" xmlns="http://www.w3.org/2000/svg"><g clip-path="url('#clip0_1_2722')" stroke="#D2EBD5"><g opacity=".4"><path d="M-94.294 125.277a2.233 2.233 0 0 0-.655 1.573v11.873c0 1.227.991 2.217 2.218 2.217h11.845a2.22 2.22 0 0 0 1.57-.65l82.6-82.766c.418-.418.656-.986.656-1.573V44.077a2.214 2.214 0 0 0-2.218-2.217H-10.13c-.589 0-1.155.234-1.57.65l-82.595 82.767Zm0 0-.324-.326M79.334 127.899h-11.85a2.215 2.215 0 0 1-2.22-2.217v-11.875c0-.587.238-1.154.656-1.573l38.639-38.716c.415-.416.981-.65 1.57-.65h11.851c1.228 0 2.219.99 2.219 2.217v11.874c0 .587-.239 1.154-.656 1.573l-38.64 38.716a2.217 2.217 0 0 1-1.569.651ZM18.112 71.249H6.262a2.214 2.214 0 0 1-2.22-2.216V57.158c0-.587.239-1.154.656-1.573l29.44-29.498c.415-.416.981-.65 1.57-.65h11.85c1.228 0 2.22.99 2.22 2.216v11.875c0 .586-.239 1.154-.656 1.572L19.682 70.6a2.22 2.22 0 0 1-1.57.65ZM142.231 66.218H130.38A2.215 2.215 0 0 1 128.161 64V52.127c0-.587.238-1.155.656-1.573l29.439-29.498c.416-.417.982-.65 1.57-.65h11.851c1.227 0 2.219.99 2.219 2.216v11.874c0 .587-.238 1.155-.656 1.573l-29.439 29.499c-.416.416-.982.65-1.57.65ZM105.091 72.591H93.24a2.215 2.215 0 0 1-2.219-2.216V58.5c0-.587.238-1.154.656-1.573l19.738-19.777c.415-.416.981-.65 1.569-.65h11.851c1.227 0 2.219.99 2.219 2.216V50.59c0 .587-.238 1.155-.655 1.573l-19.738 19.778c-.416.416-.982.65-1.57.65ZM19.037 189.384H7.186a2.214 2.214 0 0 1-2.219-2.216v-11.875c0-.586.238-1.155.656-1.573l19.738-19.777a2.22 2.22 0 0 1 1.57-.65h11.85c1.228 0 2.219.989 2.219 2.216v11.874c0 .587-.238 1.155-.655 1.573l-19.738 19.778a2.22 2.22 0 0 1-1.57.65ZM109.613 159.241H97.762a2.214 2.214 0 0 1-2.219-2.216v-11.874c0-.587.238-1.155.655-1.573l19.739-19.778c.415-.416.981-.65 1.569-.65h11.852c1.227 0 2.218.989 2.218 2.217v11.874c0 .586-.238 1.155-.655 1.573l-19.738 19.777c-.416.416-.982.65-1.57.65ZM111.844 35.908a2.22 2.22 0 0 1-1.397.644H98.43a2.214 2.214 0 0 1-2.219-2.217V22.461c0-.587.238-1.155.656-1.573L116.598 1.11a2.22 2.22 0 0 1 1.57-.65h11.85c1.228 0 2.219.989 2.219 2.216v11.881c0 .587-.238 1.155-.655 1.573l-19.738 19.777ZM55.019 182.433H43.168a2.214 2.214 0 0 1-2.219-2.216v-11.875c0-.587.238-1.155.656-1.573l37.527-37.602a2.22 2.22 0 0 1 1.57-.65h11.851c1.227 0 2.22.989 2.22 2.215v11.875c0 .587-.239 1.155-.657 1.573l-37.527 37.602a2.217 2.217 0 0 1-1.57.651Z"/><path d="M44.205 134.936H32.354a2.215 2.215 0 0 1-2.219-2.216v-11.875c0-.587.238-1.155.656-1.573l19.738-19.777a2.22 2.22 0 0 1 1.57-.65h11.85c1.228 0 2.219.99 2.219 2.216v11.874c0 .588-.238 1.155-.655 1.573l-19.739 19.777a2.217 2.217 0 0 1-1.57.651ZM3.395 115.493h-11.85a2.215 2.215 0 0 1-2.219-2.216v-11.875c0-.587.238-1.154.655-1.573l29.44-29.498a2.22 2.22 0 0 1 1.57-.65h11.85c1.228 0 2.22.99 2.22 2.216v11.875c0 .586-.238 1.154-.656 1.573l-29.44 29.498a2.22 2.22 0 0 1-1.57.65ZM-1.96 151.03h-11.85a2.215 2.215 0 0 1-2.219-2.217v-11.874c0-.587.238-1.154.656-1.572l29.44-29.499c.415-.417.98-.65 1.57-.65h11.85c1.227 0 2.219.99 2.219 2.216v11.875c0 .587-.238 1.154-.656 1.573L-.39 150.38a2.22 2.22 0 0 1-1.57.65ZM49.226 99.07H37.375a2.214 2.214 0 0 1-2.219-2.216V84.98c0-.587.238-1.155.656-1.573l39.476-39.555c.415-.416.981-.65 1.57-.65h11.85c1.228 0 2.22.99 2.22 2.216v11.875c0 .586-.239 1.154-.656 1.573L50.796 98.42a2.22 2.22 0 0 1-1.57.65Z"/></g><g opacity=".4"><path d="M-18.65 367.285a2.232 2.232 0 0 0-.655 1.573v11.873c0 1.227.991 2.217 2.218 2.217h11.845a2.22 2.22 0 0 0 1.57-.65l82.6-82.766c.418-.418.656-.986.656-1.573v-11.875a2.214 2.214 0 0 0-2.218-2.215H65.515a2.22 2.22 0 0 0-1.57.649l-82.595 82.767Zm0 0-.324-.326"/><path d="M-20.992 428.232h-11.85a2.215 2.215 0 0 1-2.22-2.217v-11.874c0-.587.239-1.154.656-1.573l29.44-29.498a2.217 2.217 0 0 1 1.57-.651h11.85c1.228 0 2.22.99 2.22 2.217v11.874c0 .588-.239 1.155-.656 1.573l-29.44 29.499a2.22 2.22 0 0 1-1.57.65ZM16.477 299.511H4.626a2.214 2.214 0 0 1-2.219-2.217V285.42c0-.586.238-1.154.656-1.573l18.399-18.435a2.22 2.22 0 0 1 1.57-.65h11.85c1.228 0 2.219.989 2.219 2.216v11.874c0 .587-.238 1.155-.655 1.573l-18.4 18.436a2.22 2.22 0 0 1-1.57.65ZM154.978 369.905h-11.851a2.213 2.213 0 0 1-2.218-2.215v-11.875c0-.587.237-1.155.655-1.573l38.639-38.716c.416-.416.982-.65 1.57-.65h11.851c1.227 0 2.219.989 2.219 2.216v11.875c0 .586-.238 1.154-.655 1.572l-38.64 38.717a2.22 2.22 0 0 1-1.57.649ZM93.756 313.257h-11.85a2.215 2.215 0 0 1-2.22-2.217v-11.875c0-.586.239-1.153.656-1.572l29.44-29.498a2.217 2.217 0 0 1 1.57-.651h11.85c1.228 0 2.219.99 2.219 2.217v11.874c0 .587-.238 1.155-.655 1.573l-29.44 29.499a2.22 2.22 0 0 1-1.57.65ZM217.875 308.226h-11.851a2.215 2.215 0 0 1-2.219-2.217v-11.875c0-.586.238-1.153.655-1.572l29.441-29.498c.415-.417.98-.651 1.57-.651h11.85c1.228 0 2.219.99 2.219 2.217v11.875a2.24 2.24 0 0 1-.656 1.573l-29.439 29.498c-.416.416-.982.65-1.57.65ZM180.735 314.599h-11.851a2.215 2.215 0 0 1-2.219-2.217v-11.875c0-.586.238-1.154.656-1.573l19.738-19.777a2.218 2.218 0 0 1 1.57-.649h11.851c1.227 0 2.219.989 2.219 2.216v11.874c0 .587-.239 1.155-.656 1.573l-19.738 19.778c-.415.416-.981.65-1.57.65ZM94.681 431.392H82.83a2.214 2.214 0 0 1-2.219-2.216v-11.875c0-.586.238-1.155.656-1.573l19.738-19.777c.415-.416.981-.65 1.569-.65h11.852c1.227 0 2.218.989 2.218 2.216v11.874c0 .587-.238 1.155-.655 1.573l-19.738 19.778a2.22 2.22 0 0 1-1.57.65ZM185.257 401.249h-11.851a2.213 2.213 0 0 1-2.218-2.216v-11.874c0-.587.238-1.155.655-1.573l19.738-19.778c.415-.416.981-.65 1.57-.65h11.851c1.227 0 2.219.989 2.219 2.217v11.874c0 .586-.238 1.155-.656 1.573l-19.738 19.777a2.22 2.22 0 0 1-1.57.65ZM187.488 277.916a2.217 2.217 0 0 1-1.397.643H174.074a2.213 2.213 0 0 1-2.218-2.215v-11.875c0-.587.237-1.155.655-1.573l19.731-19.778c.415-.416.981-.65 1.57-.65h11.851c1.227 0 2.218.989 2.218 2.217v11.881c0 .587-.238 1.154-.655 1.573l-19.738 19.777ZM130.663 424.44h-11.851a2.213 2.213 0 0 1-2.218-2.215V410.35c0-.587.237-1.155.655-1.573l37.528-37.602a2.215 2.215 0 0 1 1.569-.651h11.852c1.227 0 2.217.989 2.217 2.216v11.875c0 .587-.237 1.155-.655 1.573l-37.527 37.602c-.416.416-.982.65-1.57.65ZM11.287 334.879H-.563a2.214 2.214 0 0 1-2.22-2.216v-11.874c0-.587.238-1.155.656-1.573l19.738-19.778a2.22 2.22 0 0 1 1.57-.65h11.85c1.228 0 2.22.989 2.22 2.217v11.874c0 .586-.239 1.154-.656 1.573l-19.738 19.777a2.22 2.22 0 0 1-1.57.65Z"/><path d="M119.848 376.943h-11.85a2.214 2.214 0 0 1-2.219-2.216v-11.874c0-.587.238-1.155.656-1.573l19.738-19.778c.415-.416.981-.65 1.57-.65h11.851c1.227 0 2.219.99 2.219 2.217v11.874c0 .587-.239 1.154-.657 1.573l-19.738 19.777c-.415.416-.98.65-1.57.65ZM79.04 357.501H67.189a2.215 2.215 0 0 1-2.219-2.217V343.41c0-.587.238-1.154.656-1.573l29.44-29.498a2.217 2.217 0 0 1 1.57-.651h11.85c1.227 0 2.219.991 2.219 2.217v11.874a2.23 2.23 0 0 1-.656 1.573l-29.44 29.499a2.22 2.22 0 0 1-1.57.65ZM73.685 393.038H61.834a2.215 2.215 0 0 1-2.219-2.217v-11.875c0-.586.238-1.154.656-1.573l29.44-29.498a2.22 2.22 0 0 1 1.57-.65h11.85c1.227 0 2.218.989 2.218 2.217v11.874c0 .586-.237 1.154-.655 1.573l-29.44 29.498a2.217 2.217 0 0 1-1.57.651Z"/><path d="M25.176 411.473h-11.85a2.215 2.215 0 0 1-2.22-2.216v-11.874c0-.588.239-1.155.656-1.573l39.476-39.555c.416-.417.981-.65 1.57-.65h11.85c1.228 0 2.22.989 2.22 2.216v11.874c0 .587-.238 1.155-.656 1.573l-39.476 39.555a2.22 2.22 0 0 1-1.57.65ZM124.869 341.078h-11.85a2.213 2.213 0 0 1-2.218-2.216v-11.875c0-.586.238-1.155.655-1.573l39.476-39.554a2.217 2.217 0 0 1 1.57-.651h11.851c1.227 0 2.218.99 2.218 2.217V299.3c0 .588-.237 1.155-.656 1.573l-39.476 39.555c-.415.416-.98.65-1.57.65Z"/></g></g><defs><clipPath id="clip0_1_2722"><path fill="#fff" d="M0 0h250v466H0z"/></clipPath></defs></svg>