<svg width="24" height="24" fill="none" xmlns="http://www.w3.org/2000/svg"><path d="M23.953 3.085a8.737 8.737 0 0 1-2.825.93c1.026-.74 1.794-1.901 2.163-3.268a9.199 9.199 0 0 1-3.127 1.42c-.74-.95-1.721-1.58-2.79-1.791-1.07-.213-2.167.005-3.123.618-.956.613-1.716 1.588-2.163 2.772a6.997 6.997 0 0 0-.308 3.78c-4.09-.231-7.713-2.59-10.14-6.151a6.696 6.696 0 0 0-.666 2.97c0 2.052.87 3.856 2.188 4.915a4.3 4.3 0 0 1-2.228-.739v.072c0 1.364.392 2.686 1.112 3.741.719 1.056 1.72 1.78 2.834 2.051a4.19 4.19 0 0 1-2.212.102c.316 1.174.93 2.2 1.755 2.935.825.735 1.821 1.143 2.849 1.166-1.74 1.639-3.89 2.529-6.102 2.526-.39 0-.779-.028-1.17-.08 2.256 1.733 4.879 2.653 7.557 2.65 9.053 0 13.998-8.995 13.998-16.782 0-.252 0-.504-.015-.756.966-.834 1.8-1.87 2.46-3.057l-.047-.024Z" fill="#fff"/></svg>