<svg width="250" height="466" viewBox="0 0 250 466" fill="none" xmlns="http://www.w3.org/2000/svg">
<g clip-path="url(#clip0_1_2722)">
<g opacity="0.4">
<path d="M-94.2941 125.277C-94.7114 125.695 -94.9494 126.262 -94.9494 126.85V138.723C-94.9494 139.95 -93.9577 140.94 -92.7307 140.94H-80.8864C-80.2979 140.94 -79.732 140.706 -79.3165 140.29L3.28465 57.5241C3.70221 57.1057 3.9401 56.5379 3.9401 55.9511V44.0767C3.9401 42.8498 2.94888 41.8604 1.72151 41.8604H-10.1294C-10.7179 41.8604 -11.2837 42.0941 -11.6992 42.5104L-94.2941 125.277ZM-94.2941 125.277L-94.6176 124.951" stroke="#D2EBD5"/>
<path d="M79.334 127.899H67.4832C66.2558 127.899 65.2645 126.909 65.2645 125.682V113.807C65.2645 113.22 65.5024 112.653 65.92 112.234L104.559 73.5183C104.974 73.102 105.54 72.8682 106.129 72.8682H117.98C119.208 72.8682 120.199 73.8577 120.199 75.0845V86.959C120.199 87.5458 119.96 88.1135 119.543 88.5319L80.9039 127.248C80.4883 127.665 79.9225 127.899 79.334 127.899Z" stroke="#D2EBD5"/>
<path d="M18.1121 71.2489H6.26128C5.0339 71.2489 4.04268 70.2594 4.04268 69.0326V57.1581C4.04268 56.5714 4.28057 56.0036 4.69814 55.5852L34.1379 26.0869C34.5533 25.6705 35.1191 25.4368 35.7077 25.4368H47.5585C48.7859 25.4368 49.7771 26.4262 49.7771 27.6531V39.5276C49.7771 40.1143 49.5392 40.6821 49.1217 41.1005L19.682 70.5989C19.2665 71.0152 18.7006 71.2489 18.1121 71.2489Z" stroke="#D2EBD5"/>
<path d="M142.231 66.2177H130.38C129.153 66.2177 128.161 65.2282 128.161 64.0014V52.1269C128.161 51.5401 128.399 50.9724 128.817 50.554L158.256 21.0556C158.672 20.6393 159.238 20.4055 159.826 20.4055H171.677C172.904 20.4055 173.896 21.3951 173.896 22.6219V34.4963C173.896 35.0831 173.658 35.6509 173.24 36.0693L143.801 65.5676C143.385 65.9839 142.819 66.2177 142.231 66.2177Z" stroke="#D2EBD5"/>
<path d="M105.091 72.591H93.2399C92.0129 72.591 91.0213 71.6014 91.0213 70.3746V58.5002C91.0213 57.9134 91.2593 57.3456 91.6768 56.9272L111.415 37.1499C111.83 36.7335 112.396 36.4998 112.984 36.4998H124.835C126.062 36.4998 127.054 37.4892 127.054 38.7161V50.5905C127.054 51.1773 126.816 51.7451 126.399 52.1635L106.661 71.9409C106.245 72.3572 105.679 72.591 105.091 72.591Z" stroke="#D2EBD5"/>
<path d="M19.0367 189.384H7.18579C5.95841 189.384 4.96719 188.395 4.96719 187.168V175.293C4.96719 174.707 5.20507 174.138 5.62264 173.72L25.3607 153.943C25.7762 153.527 26.342 153.293 26.9305 153.293H38.7814C40.0087 153.293 41 154.282 41 155.509V167.383C41 167.97 40.7621 168.538 40.3446 168.956L20.6065 188.734C20.191 189.15 19.6252 189.384 19.0367 189.384Z" stroke="#D2EBD5"/>
<path d="M109.613 159.241H97.7619C96.5349 159.241 95.5432 158.252 95.5432 157.025V145.151C95.5432 144.564 95.7813 143.996 96.1985 143.578L115.937 123.8C116.352 123.384 116.918 123.15 117.506 123.15H129.358C130.585 123.15 131.576 124.139 131.576 125.367V137.241C131.576 137.827 131.338 138.396 130.921 138.814L111.183 158.591C110.767 159.007 110.201 159.241 109.613 159.241Z" stroke="#D2EBD5"/>
<path d="M111.844 35.9083C111.469 36.2837 110.972 36.5107 110.447 36.5516H110.28H98.4301C97.2022 36.5516 96.2114 35.5621 96.2114 34.3353V22.4608C96.2114 21.8741 96.4494 21.3063 96.8667 20.8878L116.598 1.1105C117.014 0.694195 117.579 0.460449 118.168 0.460449H130.018C131.246 0.460449 132.237 1.44994 132.237 2.67676V14.558C132.237 15.1447 131.999 15.7126 131.582 16.1309L111.844 35.9083Z" stroke="#D2EBD5"/>
<path d="M55.0187 182.433H43.1678C41.9404 182.433 40.9492 181.444 40.9492 180.217V168.342C40.9492 167.755 41.1871 167.187 41.6047 166.769L79.1324 129.167C79.5479 128.751 80.1137 128.517 80.7022 128.517H92.5533C93.7803 128.517 94.7721 129.506 94.7721 130.732V142.607C94.7721 143.194 94.534 143.762 94.1158 144.18L56.5885 181.782C56.1731 182.199 55.6072 182.433 55.0187 182.433Z" stroke="#D2EBD5"/>
<path d="M44.2047 134.936H32.3538C31.1265 134.936 30.1352 133.946 30.1352 132.72V120.845C30.1352 120.258 30.3731 119.69 30.7907 119.272L50.5287 99.4947C50.9442 99.0784 51.51 98.8445 52.0985 98.8445H63.9494C65.1768 98.8445 66.168 99.8345 66.168 101.061V112.935C66.168 113.523 65.9301 114.09 65.5126 114.508L45.7745 134.285C45.359 134.702 44.7932 134.936 44.2047 134.936Z" stroke="#D2EBD5"/>
<path d="M3.39549 115.493H-8.45537C-9.68273 115.493 -10.674 114.503 -10.674 113.277V101.402C-10.674 100.815 -10.4361 100.248 -10.0185 99.829L19.4211 70.331C19.8367 69.9146 20.4025 69.6809 20.991 69.6809H32.8419C34.0693 69.6809 35.0605 70.6704 35.0605 71.8973V83.7717C35.0605 84.3584 34.8226 84.9263 34.4051 85.3447L4.96533 114.843C4.54985 115.259 3.98401 115.493 3.39549 115.493Z" stroke="#D2EBD5"/>
<path d="M-1.95944 151.03H-13.8103C-15.0377 151.03 -16.029 150.04 -16.029 148.813V136.939C-16.029 136.352 -15.791 135.785 -15.3734 135.367L14.0663 105.868C14.4817 105.451 15.0475 105.218 15.6361 105.218H27.4869C28.7143 105.218 29.7055 106.208 29.7055 107.434V119.309C29.7055 119.896 29.4676 120.463 29.0501 120.882L-0.389599 150.38C-0.805082 150.796 -1.37092 151.03 -1.95944 151.03Z" stroke="#D2EBD5"/>
<path d="M49.2257 99.0701H37.3748C36.1475 99.0701 35.1562 98.081 35.1562 96.8543V84.9796C35.1562 84.3929 35.3941 83.825 35.8117 83.4067L75.2879 43.8519C75.7033 43.4356 76.2691 43.2019 76.8576 43.2019H88.7085C89.9359 43.2019 90.9271 44.1914 90.9271 45.4182V57.2927C90.9271 57.8794 90.6892 58.4472 90.2717 58.8656L50.7956 98.42C50.3801 98.8362 49.8142 99.0701 49.2257 99.0701Z" stroke="#D2EBD5"/>
</g>
<g opacity="0.4">
<path d="M-18.6496 367.285C-19.0672 367.703 -19.3051 368.27 -19.3051 368.858V380.731C-19.3051 381.958 -18.3139 382.948 -17.0865 382.948H-5.24229C-4.65377 382.948 -4.08793 382.714 -3.67245 382.298L78.9288 299.532C79.3463 299.114 79.5842 298.546 79.5842 297.959V286.084C79.5842 284.858 78.5929 283.869 77.3656 283.869H65.5147C64.9262 283.869 64.3604 284.102 63.9449 284.518L-18.6496 367.285ZM-18.6496 367.285L-18.9739 366.959" stroke="#D2EBD5"/>
<path d="M-20.9916 428.232H-32.8425C-34.0699 428.232 -35.0611 427.242 -35.0611 426.015V414.141C-35.0611 413.554 -34.8233 412.987 -34.4056 412.568L-4.96595 383.07C-4.55048 382.653 -3.98464 382.419 -3.39611 382.419H8.45475C9.68217 382.419 10.6734 383.409 10.6734 384.636V396.51C10.6734 397.098 10.4355 397.665 10.0179 398.083L-19.4218 427.582C-19.8373 427.998 -20.4031 428.232 -20.9916 428.232Z" stroke="#D2EBD5"/>
<path d="M16.4767 299.511H4.6259C3.39852 299.511 2.4073 298.522 2.4073 297.294V285.42C2.4073 284.834 2.64519 284.266 3.06276 283.847L21.4618 265.412C21.8772 264.996 22.443 264.762 23.0315 264.762H34.8824C36.1098 264.762 37.101 265.751 37.101 266.978V278.852C37.101 279.439 36.8631 280.007 36.4456 280.425L18.0466 298.861C17.6312 299.277 17.0653 299.511 16.4767 299.511Z" stroke="#D2EBD5"/>
<path d="M154.978 369.905H143.127C141.9 369.905 140.909 368.916 140.909 367.69V355.815C140.909 355.228 141.146 354.66 141.564 354.242L180.203 315.526C180.619 315.11 181.185 314.876 181.773 314.876H193.624C194.851 314.876 195.843 315.865 195.843 317.092V328.967C195.843 329.553 195.605 330.121 195.188 330.539L156.548 369.256C156.132 369.672 155.567 369.905 154.978 369.905Z" stroke="#D2EBD5"/>
<path d="M93.7564 313.257H81.9054C80.678 313.257 79.6868 312.267 79.6868 311.04V299.165C79.6868 298.579 79.9246 298.012 80.3423 297.593L109.782 268.095C110.198 267.678 110.763 267.444 111.352 267.444H123.202C124.43 267.444 125.421 268.434 125.421 269.661V281.535C125.421 282.122 125.183 282.69 124.766 283.108L95.3263 312.607C94.9108 313.023 94.3447 313.257 93.7564 313.257Z" stroke="#D2EBD5"/>
<path d="M217.875 308.226H206.024C204.797 308.226 203.805 307.236 203.805 306.009V294.134C203.805 293.548 204.043 292.981 204.46 292.562L233.901 263.064C234.316 262.647 234.881 262.413 235.471 262.413H247.321C248.549 262.413 249.54 263.403 249.54 264.63V276.505C249.54 277.091 249.301 277.659 248.884 278.078L219.445 307.576C219.029 307.992 218.463 308.226 217.875 308.226Z" stroke="#D2EBD5"/>
<path d="M180.735 314.599H168.884C167.656 314.599 166.665 313.609 166.665 312.382V300.507C166.665 299.921 166.903 299.353 167.321 298.934L187.059 279.157C187.474 278.741 188.04 278.508 188.629 278.508H200.48C201.707 278.508 202.699 279.497 202.699 280.724V292.598C202.699 293.185 202.46 293.753 202.043 294.171L182.305 313.949C181.89 314.365 181.324 314.599 180.735 314.599Z" stroke="#D2EBD5"/>
<path d="M94.6811 431.392H82.8299C81.6025 431.392 80.6113 430.403 80.6113 429.176V417.301C80.6113 416.715 80.8492 416.146 81.2667 415.728L101.005 395.951C101.42 395.535 101.986 395.301 102.574 395.301H114.426C115.653 395.301 116.644 396.29 116.644 397.517V409.391C116.644 409.978 116.406 410.546 115.989 410.964L96.2509 430.742C95.8355 431.158 95.2693 431.392 94.6811 431.392Z" stroke="#D2EBD5"/>
<path d="M185.257 401.249H173.406C172.178 401.249 171.188 400.26 171.188 399.033V387.159C171.188 386.572 171.426 386.004 171.843 385.586L191.581 365.808C191.996 365.392 192.562 365.158 193.151 365.158H205.002C206.229 365.158 207.221 366.147 207.221 367.375V379.249C207.221 379.835 206.983 380.404 206.565 380.822L186.827 400.599C186.411 401.015 185.846 401.249 185.257 401.249Z" stroke="#D2EBD5"/>
<path d="M187.488 277.916C187.113 278.291 186.616 278.519 186.091 278.559H185.925H174.074C172.847 278.559 171.856 277.57 171.856 276.344V264.469C171.856 263.882 172.093 263.314 172.511 262.896L192.242 243.118C192.657 242.702 193.223 242.468 193.812 242.468H205.663C206.89 242.468 207.881 243.457 207.881 244.685V256.566C207.881 257.153 207.643 257.72 207.226 258.139L187.488 277.916Z" stroke="#D2EBD5"/>
<path d="M130.663 424.44H118.812C117.585 424.44 116.594 423.451 116.594 422.225V410.35C116.594 409.763 116.831 409.195 117.249 408.777L154.777 371.175C155.192 370.758 155.758 370.524 156.346 370.524H168.198C169.425 370.524 170.415 371.513 170.415 372.74V384.615C170.415 385.202 170.178 385.77 169.76 386.188L132.233 423.79C131.817 424.206 131.251 424.44 130.663 424.44Z" stroke="#D2EBD5"/>
<path d="M11.2869 334.879H-0.563883C-1.79126 334.879 -2.78248 333.89 -2.78248 332.663V320.789C-2.78248 320.202 -2.5446 319.634 -2.12703 319.216L17.611 299.438C18.0265 299.022 18.5924 298.788 19.1809 298.788H31.0317C32.2591 298.788 33.2504 299.777 33.2504 301.005V312.879C33.2504 313.465 33.0124 314.033 32.5949 314.452L12.8568 334.229C12.4414 334.645 11.8756 334.879 11.2869 334.879Z" stroke="#D2EBD5"/>
<path d="M119.848 376.943H107.998C106.77 376.943 105.779 375.954 105.779 374.727V362.853C105.779 362.266 106.017 361.698 106.435 361.28L126.173 341.502C126.588 341.086 127.154 340.852 127.743 340.852H139.594C140.821 340.852 141.813 341.842 141.813 343.069V354.943C141.813 355.53 141.574 356.097 141.156 356.516L121.418 376.293C121.003 376.709 120.438 376.943 119.848 376.943Z" stroke="#D2EBD5"/>
<path d="M79.0396 357.501H67.1887C65.9614 357.501 64.9701 356.511 64.9701 355.284V343.41C64.9701 342.823 65.208 342.256 65.6256 341.837L95.0653 312.339C95.4807 311.922 96.0469 311.688 96.6351 311.688H108.486C109.713 311.688 110.705 312.679 110.705 313.905V325.779C110.705 326.367 110.467 326.934 110.049 327.352L80.6095 356.851C80.1939 357.267 79.6281 357.501 79.0396 357.501Z" stroke="#D2EBD5"/>
<path d="M73.6847 393.038H61.8338C60.6064 393.038 59.6152 392.048 59.6152 390.821V378.946C59.6152 378.36 59.8531 377.792 60.2707 377.373L89.7103 347.875C90.1258 347.459 90.6916 347.225 91.2801 347.225H103.131C104.358 347.225 105.349 348.214 105.349 349.442V361.316C105.349 361.902 105.112 362.47 104.694 362.889L75.2545 392.387C74.8391 392.804 74.2732 393.038 73.6847 393.038Z" stroke="#D2EBD5"/>
<path d="M25.1761 411.473H13.3252C12.0978 411.473 11.1066 410.483 11.1066 409.257V397.383C11.1066 396.795 11.3445 396.228 11.762 395.81L51.2381 356.255C51.6537 355.838 52.2195 355.605 52.808 355.605H64.6588C65.8862 355.605 66.8775 356.594 66.8775 357.821V369.695C66.8775 370.282 66.6396 370.85 66.222 371.268L26.746 410.823C26.3304 411.239 25.7646 411.473 25.1761 411.473Z" stroke="#D2EBD5"/>
<path d="M124.869 341.078H113.019C111.791 341.078 110.801 340.089 110.801 338.862V326.987C110.801 326.401 111.039 325.832 111.456 325.414L150.932 285.86C151.347 285.443 151.914 285.209 152.502 285.209H164.353C165.58 285.209 166.571 286.199 166.571 287.426V299.3C166.571 299.888 166.334 300.455 165.915 300.873L126.439 340.428C126.024 340.844 125.459 341.078 124.869 341.078Z" stroke="#D2EBD5"/>
</g>
</g>
<defs>
<clipPath id="clip0_1_2722">
<rect width="250" height="466" fill="white"/>
</clipPath>
</defs>
</svg>
