<svg width="96" height="57" viewBox="0 0 96 57" fill="none" xmlns="http://www.w3.org/2000/svg">
<path d="M93.4723 0L76.8531 0.0159063C76.2192 0.0159063 75.6013 0.270406 75.1519 0.715781L53.9105 21.7916L53.8544 21.8233C51.8322 23.8276 48.3735 22.4039 48.3735 19.5726V2.50523C48.3896 1.12139 47.2581 0 45.8618 0L29.2427 0.0159063C28.6087 0.0159063 27.9908 0.270406 27.5415 0.715781L0.706903 27.3031C0.233447 27.7643 -0.0153187 28.4085 0.000730634 29.0607V54.4948C0.000730634 55.8786 1.14024 57 2.53653 57L19.1316 56.9841C19.7656 56.9841 20.3834 56.7296 20.8328 56.2842L42.1383 35.1767C44.1606 33.1724 47.6192 34.5882 47.6192 37.4274V54.4948C47.6192 55.8786 48.7507 57 50.147 57L66.742 56.9841C67.376 56.9841 67.9938 56.7296 68.4432 56.2842L95.2777 29.6969C95.7511 29.2277 96 28.5915 95.9842 27.9313L96 2.49728C96 1.12139 94.8685 0 93.4723 0Z" fill="#E6FF4C"/>
</svg>
