<svg width="24" height="24" viewBox="0 0 24 24" fill="none" xmlns="http://www.w3.org/2000/svg">
<path d="M0.305475 23.9967H5.44883V7.81053H0.305475V23.9967ZM2.91146 0.00665573C2.5361 -0.0198658 2.15942 0.0330603 1.80518 0.162101C1.45094 0.291142 1.12684 0.4935 0.853317 0.756391C0.579798 1.01928 0.362802 1.337 0.216027 1.6895C0.069252 2.04201 -0.00412736 2.42163 0.000539196 2.80443C-0.00687962 3.18206 0.0623283 3.55719 0.20383 3.90638C0.345331 4.25556 0.556094 4.57131 0.822941 4.83387C1.08979 5.09643 1.40698 5.30019 1.75472 5.4324C2.10245 5.56459 2.47325 5.62241 2.84394 5.60222H2.8777C3.25306 5.62875 3.62973 5.57582 3.98397 5.44678C4.33821 5.31773 4.66232 5.11538 4.93584 4.85249C5.20934 4.58961 5.42635 4.27188 5.57312 3.91937C5.7199 3.56688 5.79326 3.18723 5.78859 2.80443C5.79536 2.42402 5.72459 2.04631 5.5807 1.69511C5.43682 1.34393 5.22296 1.02689 4.95261 0.764016C4.68227 0.501135 4.36133 0.298118 4.01 0.167765C3.65869 0.0374114 3.28464 -0.0174449 2.91146 0.00665573ZM24 14.7158V23.9967H18.8566V15.3374C18.8566 13.1623 18.1128 11.6809 16.2507 11.6809C15.6643 11.6896 15.0952 11.8837 14.6222 12.2363C14.1492 12.5889 13.7957 13.0826 13.6109 13.6487C13.4789 14.0725 13.4214 14.5166 13.441 14.9607V24H8.29549C8.29549 24 8.36518 9.33408 8.29549 7.81387H13.4388V10.1097C13.4301 10.1274 13.416 10.144 13.4073 10.1618H13.4388V10.1097C13.8933 9.27141 14.5673 8.57769 15.3858 8.1055C16.2043 7.63334 17.1355 7.40121 18.0758 7.43491C21.4616 7.43491 24 9.74738 24 14.7202" fill="white"/>
</svg>
