<svg width="24" height="24" viewBox="0 0 24 24" fill="none" xmlns="http://www.w3.org/2000/svg">
<g clip-path="url(#clip0_1_2759)">
<path d="M23.953 3.0846C23.0545 3.55932 22.1026 3.87269 21.128 4.0146C22.1541 3.2745 22.9224 2.11385 23.291 0.746992C22.34 1.413 21.286 1.8978 20.164 2.1678C19.4238 1.2179 18.4429 0.587899 17.3736 0.375595C16.3044 0.163291 15.2067 0.380573 14.2509 0.993701C13.2952 1.60683 12.5349 2.5815 12.0881 3.76634C11.6412 4.95119 11.533 6.27992 11.78 7.5462C7.69 7.3146 4.067 4.9566 1.64 1.395C1.19879 2.29477 0.968664 3.32102 0.974 4.365C0.974 6.417 1.844 8.2206 3.162 9.2802C2.38086 9.25035 1.61697 8.99691 0.934 8.541V8.613C0.933557 9.97667 1.32627 11.2985 2.04551 12.3543C2.76474 13.4101 3.76621 14.1348 4.88 14.4054C4.1583 14.6375 3.40241 14.6723 2.668 14.5074C2.98412 15.681 3.59766 16.7069 4.42301 17.442C5.24837 18.177 6.24435 18.5847 7.272 18.6078C5.53153 20.2469 3.38248 21.1366 1.17 21.1338C0.78 21.1338 0.391 21.1062 0 21.0534C2.25571 22.7866 4.87851 23.7066 7.557 23.7042C16.61 23.7042 21.555 14.709 21.555 6.9222C21.555 6.6702 21.555 6.4182 21.54 6.1662C22.506 5.33203 23.3392 4.29637 24 3.1086L23.953 3.0846Z" fill="white"/>
</g>
<defs>
<clipPath id="clip0_1_2759">
<rect width="24" height="24" fill="white"/>
</clipPath>
</defs>
</svg>
